<?xml version="1.0" encoding="UTF-8" ?>
<!DOCTYPE svg PUBLIC "-//W3C//DTD SVG 1.1//EN" "http://www.w3.org/Graphics/SVG/1.1/DTD/svg11.dtd">
<svg width="600pt" height="550pt" viewBox="0 0 600 550" version="1.1" xmlns="http://www.w3.org/2000/svg">
<path fill="#ffffff" d=" M 0.00 0.00 L 297.03 0.00 C 264.95 0.70 232.86 5.79 202.54 16.48 C 166.32 28.96 132.84 48.87 103.75 73.74 C 78.59 95.00 56.95 120.14 37.92 146.95 C 23.37 168.27 10.09 190.58 0.00 214.38 L 0.00 0.00 Z" />
<path fill="#090a09" d=" M 297.03 0.00 L 302.57 0.00 C 335.20 0.28 367.83 6.02 398.33 17.74 C 444.38 35.06 485.04 64.74 518.91 100.13 C 551.55 134.87 579.48 174.28 600.00 217.36 L 600.00 217.92 C 513.25 305.24 426.44 392.50 339.69 479.82 C 345.06 488.78 347.64 499.48 346.25 509.89 C 344.78 522.68 337.48 534.61 326.82 541.81 C 316.63 548.95 303.39 551.56 291.26 548.84 C 278.19 546.12 266.58 537.31 260.30 525.55 C 252.77 511.69 253.23 494.09 261.22 480.52 C 174.17 391.97 87.06 303.47 0.00 214.93 L 0.00 214.38 C 10.09 190.58 23.37 168.27 37.92 146.95 C 56.95 120.14 78.59 95.00 103.75 73.74 C 132.84 48.87 166.32 28.96 202.54 16.48 C 232.86 5.79 264.95 0.70 297.03 0.00 Z" />
<path fill="#ffffff" d=" M 302.57 0.00 L 600.00 0.00 L 600.00 217.36 C 579.48 174.28 551.55 134.87 518.91 100.13 C 485.04 64.74 444.38 35.06 398.33 17.74 C 367.83 6.02 335.20 0.28 302.57 0.00 Z" />
<path fill="#007f00" d=" M 187.83 23.81 C 221.45 9.93 257.70 2.59 294.05 1.88 C 334.92 0.61 376.04 8.85 413.30 25.71 C 454.12 44.00 490.14 71.85 520.63 104.38 C 551.68 138.00 578.23 175.95 598.16 217.20 C 546.37 269.72 494.21 321.88 442.25 374.24 C 407.36 409.27 372.62 444.44 337.67 479.41 C 342.89 488.35 346.04 498.77 344.66 509.19 C 343.14 524.03 333.39 537.56 319.93 543.91 C 309.78 548.81 297.72 549.53 287.03 546.00 C 272.97 541.41 261.59 529.42 258.00 515.05 C 254.75 503.29 257.16 490.61 263.24 480.19 C 180.89 396.41 98.48 312.69 16.11 228.92 C 11.50 224.07 6.57 219.51 2.11 214.52 C 2.22 212.86 3.11 211.37 3.72 209.85 C 20.06 174.21 42.00 141.24 67.72 111.69 C 100.59 74.04 141.44 42.84 187.83 23.81 Z" />
<path fill="#090a09" d=" M 277.68 122.21 C 284.95 115.89 292.20 109.52 299.51 103.24 C 306.22 110.91 312.89 118.61 319.58 126.30 C 312.97 132.15 306.25 137.88 299.65 143.74 C 298.85 144.27 297.64 145.88 296.85 144.36 C 290.44 137.00 283.96 129.69 277.68 122.21 Z" />
<path fill="#ffffff" d=" M 279.97 122.42 C 286.42 116.79 292.87 111.18 299.34 105.57 C 305.32 112.43 311.29 119.29 317.24 126.16 C 310.80 131.80 304.32 137.40 297.87 143.05 C 291.92 136.15 285.94 129.29 279.97 122.42 Z" />
<path fill="#090a09" d=" M 145.47 277.07 C 188.45 233.76 231.54 190.56 274.53 147.26 C 279.41 152.18 285.81 155.49 292.72 156.32 C 302.80 157.76 313.77 156.07 321.97 149.71 C 365.63 193.36 409.22 237.09 452.81 280.80 C 447.06 290.62 443.86 302.25 445.42 313.64 C 446.70 321.23 449.67 328.46 453.67 335.02 C 410.60 378.92 367.52 422.81 324.37 466.63 C 316.75 462.13 307.97 459.43 299.07 459.86 C 291.12 459.98 283.44 462.70 276.63 466.67 C 232.81 421.30 189.04 375.88 145.31 330.42 C 149.73 322.90 153.90 314.81 154.77 306.01 C 154.48 295.72 149.81 286.21 145.47 277.07 Z" />
<path fill="#ffffff" d=" M 274.49 149.60 C 279.85 154.48 286.73 157.52 293.96 158.14 C 303.57 159.20 313.80 157.55 321.83 151.92 C 364.80 194.98 407.78 238.03 450.74 281.09 C 444.80 291.61 441.87 304.17 444.20 316.15 C 445.69 322.69 448.12 329.02 451.58 334.78 C 409.09 378.06 366.58 421.33 324.06 464.59 C 309.85 456.03 291.12 456.03 276.94 464.65 C 233.74 419.85 190.57 375.03 147.37 330.23 C 151.84 322.13 156.57 313.41 156.40 303.92 C 155.37 294.56 151.62 285.77 147.46 277.41 C 189.80 234.81 232.19 192.25 274.49 149.60 Z" />
<path fill="#ffffff" d=" M 0.00 214.93 C 87.06 303.47 174.17 391.97 261.22 480.52 C 253.23 494.09 252.77 511.69 260.30 525.55 C 266.58 537.31 278.19 546.12 291.26 548.84 C 303.39 551.56 316.63 548.95 326.82 541.81 C 337.48 534.61 344.78 522.68 346.25 509.89 C 347.64 499.48 345.06 488.78 339.69 479.82 C 426.44 392.50 513.25 305.24 600.00 217.92 L 600.00 550.00 L 0.00 550.00 L 0.00 214.93 Z" />
<path fill="#090a09" d=" M 456.14 297.67 C 463.40 291.29 470.69 284.97 478.00 278.65 C 484.72 286.32 491.41 294.03 498.09 301.73 C 490.82 308.10 483.52 314.44 476.22 320.76 C 469.50 313.08 462.80 305.40 456.14 297.67 Z" />
<path fill="#090a09" d=" M 107.06 302.14 C 113.67 295.09 120.28 288.04 126.97 281.06 C 134.44 288.02 141.82 295.07 149.21 302.10 C 142.61 309.14 135.94 316.11 129.35 323.16 C 121.84 316.24 114.48 309.17 107.06 302.14 Z" />
<path fill="#ffffff" d=" M 477.83 280.97 C 483.82 287.82 489.77 294.70 495.75 301.56 C 489.29 307.19 482.83 312.81 476.38 318.44 C 470.43 311.56 464.41 304.74 458.49 297.83 C 464.92 292.19 471.40 286.61 477.83 280.97 Z" />
<path fill="#ffffff" d=" M 109.39 302.07 C 115.25 295.83 121.14 289.62 127.04 283.43 C 133.68 289.64 140.26 295.93 146.88 302.17 C 140.98 308.38 135.10 314.60 129.24 320.85 C 122.59 314.62 116.01 308.32 109.39 302.07 Z" />
<path fill="#090a09" d=" M 286.53 483.11 C 296.71 483.10 306.90 483.09 317.08 483.11 C 317.12 492.78 317.11 502.45 317.08 512.12 C 306.89 512.14 296.70 512.15 286.51 512.12 C 286.49 502.45 286.46 492.78 286.53 483.11 Z" />
<path fill="#ffffff" d=" M 288.16 484.78 C 297.27 484.78 306.37 484.77 315.47 484.79 C 315.48 493.35 315.48 501.91 315.47 510.48 C 306.37 510.48 297.27 510.48 288.16 510.48 C 288.16 501.91 288.16 493.35 288.16 484.78 Z" />
</svg>
